<svg width="94" height="94" viewBox="0 0 94 94" fill="none" xmlns="http://www.w3.org/2000/svg">
<path d="M75.8062 50.8294H82.8259V56.743H68.7446V36.5219H75.8062V50.8294Z" fill="#007EBE"/>
<path d="M72.5276 36.5219H68.7446V56.7428H72.5276V36.5219Z" fill="#007EBE"/>
<path d="M59.8437 50.5558V36.7881C59.8437 36.6411 59.7245 36.5219 59.5775 36.5219H53.0542C52.9071 36.5219 52.788 36.6411 52.788 36.7881V43.4074C52.788 43.4891 52.7505 43.5664 52.6861 43.6169L43.2195 51.0503C43.1229 51.1261 42.987 51.1261 42.8905 51.0503L41.4566 49.9234C41.3209 49.8167 41.3209 49.6112 41.4566 49.5048L50.6464 42.2809C50.7821 42.1742 50.7821 41.969 50.6464 41.8623L47.1434 39.1077C47.0468 39.0317 46.9108 39.0317 46.8142 39.1077L37.4203 46.4947C37.3237 46.5708 37.1875 46.5708 37.0909 46.4946L35.6604 45.368C35.5249 45.2614 35.525 45.0561 35.6605 44.9496L44.8496 37.7232C44.9851 37.6165 44.9851 37.4113 44.8496 37.3046L41.3466 34.55C41.25 34.4739 41.1142 34.4739 41.0176 34.55L30.8397 42.5486C30.7048 42.6547 30.5036 42.6082 30.434 42.4513C29.0539 39.3419 25.6965 36.5219 21.0863 36.5219H12.2828C12.1358 36.5219 12.0166 36.6411 12.0166 36.7881V56.472C12.0166 56.619 12.1358 56.7382 12.2828 56.7382H21.0861C25.235 56.7382 28.8354 54.3151 30.4362 50.8053C30.5071 50.65 30.707 50.6049 30.841 50.7104L41.0174 58.7138C41.114 58.7898 41.25 58.7898 41.3466 58.7138L52.3571 50.0526C52.5317 49.9153 52.788 50.0396 52.788 50.2619V56.4769C52.788 56.624 52.9071 56.7431 53.0542 56.7431H66.602C66.749 56.7431 66.8682 56.624 66.8682 56.4769V51.0884C66.8682 50.9414 66.749 50.8222 66.602 50.8222H60.1099C59.9628 50.822 59.8437 50.7029 59.8437 50.5558ZM20.3404 50.9291H19.0727C18.9256 50.9291 18.8064 50.8099 18.8064 50.6629V42.5947C18.8064 42.4476 18.9256 42.3285 19.0727 42.3285H20.3813C22.9469 42.3285 24.7633 43.8782 24.7633 46.6275C24.7635 49.6235 22.7245 50.9291 20.3404 50.9291Z" fill="#007EBE"/>
<path d="M46.9987 0C21.0443 0 0.000976562 21.042 0.000976562 46.9977C0.000976562 72.9569 21.0443 94 46.9987 94C72.9579 94 93.9999 72.9567 93.9999 46.9977C93.9997 21.042 72.9579 0 46.9987 0ZM46.9987 88.9121C23.8503 88.9121 5.08394 70.147 5.08394 46.9973C5.08394 23.849 23.8503 5.0815 46.9987 5.0815C70.1507 5.0815 88.9169 23.849 88.9169 46.9973C88.9169 70.147 70.1507 88.9121 46.9987 88.9121Z" fill="#007EBE"/>
<path d="M15.7996 56.4719V36.7883C15.7996 36.6413 15.9187 36.5221 16.0658 36.5221H12.2828C12.1358 36.5221 12.0166 36.6413 12.0166 36.7883V56.4721C12.0166 56.6192 12.1358 56.7383 12.2828 56.7383H16.0658C15.9187 56.7382 15.7996 56.619 15.7996 56.4719Z" fill="#007EBE"/>
<path d="M3.78392 46.9977C3.78392 21.676 23.813 1.03437 48.8902 0.0411249C48.2625 0.0163398 47.6326 0 46.9987 0C21.0443 0 0.000976562 21.042 0.000976562 46.9977C0.000976562 72.9569 21.0443 94 46.9987 94C47.6324 94 48.2625 93.9837 48.8902 93.9589C23.813 92.9656 3.78392 72.3228 3.78392 46.9977Z" fill="#007EBE"/>
<path d="M42.5637 57.756L43.0728 57.3556C34.9345 50.9552 36.8431 52.4634 33.612 49.8894C33.3489 49.6797 33.2195 49.3415 33.2841 49.0114C33.5441 47.6863 33.6653 46.0251 33.3221 44.2129C33.2592 43.8798 33.3836 43.5387 33.6495 43.3285C37.4007 40.3607 35.4588 41.8908 43.0723 35.9074L42.4488 35.4173L41.3459 34.55C41.2493 34.4739 41.1135 34.4739 41.0167 34.55L30.8388 42.5486C30.7032 42.6551 30.5023 42.6077 30.4331 42.4515C30.4337 42.4527 32.1233 46.5414 30.4355 50.8057C30.5076 50.6476 30.7089 50.6076 30.8403 50.7108C31.345 51.1077 31.2018 50.995 31.7372 51.416C33.0563 52.4535 40.1887 58.0626 41.0169 58.714C41.1135 58.79 41.2495 58.79 41.3461 58.714L42.5637 57.756Z" fill="#007EBE"/>
<path d="M41.1056 46.5553L48.8701 40.4655L47.1432 39.1075C47.0826 39.0597 47.007 39.0456 46.9349 39.0577L37.4199 46.4947C37.4245 46.4984 37.4293 46.5021 37.4339 46.5058C38.5086 47.3653 40.0225 47.4045 41.1056 46.5553Z" fill="#007EBE"/>
<path d="M56.5636 56.4767C56.5636 53.8332 56.5636 38.8288 56.5636 36.7882C56.5636 36.6411 56.6827 36.5219 56.8298 36.5219H53.0468C52.8998 36.5219 52.7806 36.6411 52.7806 36.7882C52.7806 47.6986 52.7806 32.7946 52.7806 43.5708L43.2192 51.0503C44.2184 51.9798 45.7457 52.0428 46.818 51.1988L52.3002 46.8847C52.4951 46.7316 52.7808 46.8706 52.7808 47.1184C52.7808 47.3363 52.7808 56.664 52.7808 56.4767C52.7808 56.6238 52.9 56.743 53.047 56.743H56.83C56.6827 56.743 56.5636 56.6238 56.5636 56.4767Z" fill="#007EBE"/>
</svg>
