<svg width="209" height="66" viewBox="0 0 209 66" fill="none" xmlns="http://www.w3.org/2000/svg">
<path fill-rule="evenodd" clip-rule="evenodd" d="M27.1178 1.32236C21.9598 1.69197 9.10576 6.97322 1.31941 12.0984C0.933379 38.1597 10.0339 57.5845 27.1178 64.0567C44.2018 57.5845 53.3105 38.1597 52.9163 12.0984C45.1299 6.97322 32.2841 1.69197 27.1178 1.32236Z" fill="url(#paint0_radial)"/>
<path d="M27.1175 0L27.2161 0.00821345C31.0764 0.279257 38.9777 3.15396 46.0413 6.68575C47.4293 7.38389 48.7681 8.09024 50.0166 8.80481C51.2814 9.51938 52.497 10.2504 53.6223 10.9978L53.6387 11.006L54.2219 11.3921L54.2301 12.0902C54.5175 31.1782 49.7537 46.8166 40.53 56.5989C38.7149 58.5208 36.7272 60.221 34.5753 61.6748C32.4234 63.1203 30.099 64.3277 27.6103 65.2805L27.5857 65.2887L27.1175 65.3708L26.6575 65.2887C13.9185 60.4592 5.48328 48.755 1.91864 32.5992C1.23693 29.4945 0.727693 26.2173 0.407369 22.7923C0.0870447 19.3755 -0.0443705 15.8191 0.0131237 12.123V12.0902L0.0213371 11.3921L0.604492 11.006C6.29641 7.25247 14.6577 3.42501 20.8424 1.42914C22.0744 1.02668 23.2161 0.706356 24.2264 0.468166C25.2777 0.221763 26.2222 0.0657076 27.0189 0.00821345H27.0271L27.1175 0ZM27.1175 2.63652C26.4851 2.69401 25.7048 2.82543 24.8259 3.03076C23.8485 3.26074 22.7808 3.56464 21.6473 3.92603C15.8486 5.79869 8.11158 9.32226 2.625 12.8212C2.60036 16.1805 2.73177 19.433 3.02746 22.5541C3.33136 25.8641 3.82416 29.0345 4.48124 32.0324C7.80768 47.1123 15.5283 58.0444 27.1175 62.644C29.2448 61.8062 31.2406 60.7467 33.1051 59.49C35.101 58.143 36.9408 56.5742 38.6163 54.7919C47.2569 45.6339 51.766 30.9072 51.61 12.8212C50.7147 12.2462 49.7455 11.6713 48.7189 11.0882C47.4704 10.3818 46.1727 9.69187 44.8667 9.03479C38.1317 5.66728 30.715 2.9322 27.1175 2.63652Z" fill="url(#paint1_linear)"/>
<path fill-rule="evenodd" clip-rule="evenodd" d="M43.0271 35.8024C42.9121 36.0652 42.7561 36.3609 42.5179 36.4595C42.3783 36.517 42.1319 36.4184 42.2304 36.1967C42.3454 35.942 42.6329 36.1227 43.0271 35.8024ZM25.8035 54.8905C26.0335 54.1841 27.1587 53.7077 27.4052 53.2724C27.6433 52.8535 27.1752 52.0486 26.6084 52.4511C25.8446 52.9932 25.7871 54.028 25.8035 54.8905ZM20.6783 53.3053C21.1794 52.5989 22.0336 52.3607 22.8385 51.7283C23.2409 51.3997 22.9945 50.3731 22.05 50.6195C21.5161 50.7591 20.7523 52.1882 20.6783 53.3053ZM32.7603 51.3915C32.7357 52.1225 33.7131 53.0506 34.1402 53.2067C33.5981 52.4346 33.9266 51.449 33.6556 51.1123C33.401 50.792 32.7603 50.8494 32.7603 51.3915ZM39.8649 35.942C40.4563 36.4595 40.7766 37.0426 40.7931 37.864C40.8341 40.0734 39.1504 42.9317 37.7541 45.1411C36.6535 47.1123 35.6515 47.8844 33.6802 48.7304C32.1279 49.3957 30.4031 49.6585 28.4483 49.7735H27.6598C25.6064 49.7735 23.7173 49.3464 22.6578 47.3916C21.5654 45.3875 21.6065 42.6442 21.9843 40.3937C21.59 40.4759 21.0069 41.5436 19.0603 41.5354C18.124 41.5354 17.3847 40.9276 17.3847 40.2541C17.393 39.441 18.4936 38.6607 19.241 38.6771C19.8734 38.6771 20.2595 39.2849 20.2677 39.5888C20.2759 39.712 19.9966 40.0652 19.471 40.0652C18.9782 40.0406 18.8139 39.6874 18.6414 39.4163C18.0418 41.1001 20.7851 41.4368 21.705 39.8845C22.2307 38.9892 22.1568 37.8147 21.4833 37.1823C20.5551 36.3034 17.9679 36.7634 17.319 38.3404C17.0808 38.8907 16.9823 39.4081 16.6537 39.9913C16.4977 40.2787 15.8817 41.2479 15.7831 41.3629C16.7195 41.4204 17.6886 41.9461 17.7133 42.9235C17.7297 43.6627 17.2369 43.8844 17.2369 44.7469C17.2451 45.7571 18.2307 46.2171 18.8467 46.7756C19.6599 47.5148 19.9802 48.0733 19.9473 48.599C19.8488 50.1924 21.5243 49.7653 22.822 50.4059C24.4483 51.2026 22.9206 52.8289 26.2388 51.9665C27.2409 51.7036 28.2922 52.6235 29.516 52.5578C30.5591 52.5003 31.8158 51.1369 33.0231 50.6113C34.5016 49.9624 36.0128 50.3566 36.982 49.1985C37.672 48.3197 37.6309 47.2191 38.5754 45.4532C39.4132 43.8844 40.1278 44.0487 40.6288 42.7838C40.9245 42.0118 41.2859 40.4019 41.4419 39.7367C41.6308 38.981 42.3454 38.7182 42.3208 37.7326C42.3126 37.3465 42.0497 36.9112 41.8937 36.402C41.6226 35.4903 41.0888 34.9482 40.6042 34.7922C39.0354 34.2665 37.7212 34.6279 35.4872 34.5622C33.8281 34.5129 31.8158 33.8476 31.7419 31.3261C31.1176 33.0591 32.4811 34.4143 33.3517 34.6854C34.1237 34.9318 34.0663 35.6217 34.0252 35.7121C33.8445 36.1802 33.0067 36.2459 32.1607 35.8599C31.1587 35.4082 30.3702 34.1515 29.9677 33.3466C30.5345 35.4 31.9061 36.5745 33.5817 37.1084C34.247 37.3301 35.7911 37.3958 37.442 36.9441C36.0457 36.8373 35.4215 36.747 34.9205 36.287C34.6248 36.016 34.6823 35.4 34.8547 35.2193C35.0026 35.0714 35.4379 35.3014 36.1853 35.2521C37.9676 35.1453 39.2736 35.4246 39.8649 35.942ZM16.8509 49.946C17.434 49.256 18.9617 49.1575 19.3478 48.7797C19.7338 48.3936 19.6024 47.5066 18.9289 47.5066C18.2636 47.5066 17.0316 48.9275 16.8509 49.946ZM39.3064 46.2417C39.8239 46.2746 40.3413 46.2253 40.8423 45.9378C40.0867 45.9624 39.5528 45.3629 39.1997 45.3629C38.5919 45.3629 38.6165 46.1924 39.3064 46.2417ZM23.5613 40.4841C23.4956 41.2561 24.128 41.018 24.0869 41.2972C23.9966 41.9461 23.553 42.8085 22.8631 42.8824C22.2635 42.9481 22.666 41.7407 22.2471 41.404C22.0336 42.8167 22.1239 44.1801 22.4114 45.5353C22.4689 43.8598 23.8569 45.1165 25.3025 45.0672C25.746 45.0508 26.2471 44.7304 26.7974 44.8208C26.8959 44.8372 27.2819 45.0508 27.4544 44.8372C28.4154 43.5888 28.9246 43.6216 30.1402 44.5908C29.7131 43.4163 27.9637 43.0467 27.0027 43.753C26.5017 44.1883 26.0417 44.0898 25.4175 44.0323C25.0397 43.9912 24.7851 44.0651 24.7768 43.8187C24.7768 43.6216 25.13 43.3341 25.3107 43.2766C26.1649 43.0056 27.052 42.5621 27.4134 41.675C27.6023 41.2561 27.5366 40.788 27.709 40.6566C27.9637 40.443 28.514 40.5991 29.1875 40.9687C28.9 40.5991 28.3168 40.2952 27.7337 40.2705C26.8713 40.2459 26.1567 40.8373 26.1649 40.9358C26.1649 41.0919 26.4688 41.1083 26.4688 41.3054C26.4688 41.7079 24.4647 43.0877 24.3333 42.9153C24.1855 42.7099 25.4257 41.519 25.3929 40.7469C25.3764 40.4348 24.6454 40.5251 24.5962 40.2623C24.5058 39.7777 25.4257 39.4903 26.0581 39.3917C24.8836 39.3342 23.627 39.597 23.5613 40.4841ZM14.1486 45.1329C14.8222 44.3115 15.8324 44.254 16.6045 43.8269C17.3026 43.4409 17.3765 42.2089 16.3581 42.1843C15.4382 42.1596 14.1651 44.3115 14.1486 45.1329ZM42.1401 40.3034C42.6986 40.2952 42.9039 39.9256 43.2325 39.8681C42.6411 39.8188 42.1483 39.7038 41.9676 39.7859C41.6801 39.9256 41.7869 40.3034 42.1401 40.3034ZM32.596 32.8949C33.4995 34.1926 35.2572 34.2747 35.3393 34.1679C35.405 34.0612 35.1586 33.6751 35.2654 33.4698C35.5365 32.9688 37.4748 33.6751 37.7459 34.0365C37.0806 31.7203 34.0416 30.1433 32.0211 30.2419C33.6967 30.8497 35.2572 31.6218 35.3311 32.2542C35.4215 32.9113 33.8938 33.708 32.596 32.8949ZM19.6763 29.708C19.471 30.3815 22.5346 33.979 28.6454 33.1659C26.1896 33.1659 22.2964 32.5252 20.6783 30.3158C20.5962 30.2008 19.8406 29.1742 19.6763 29.708ZM25.3846 28.0407C24.1691 28.0243 22.3785 27.4986 22.3703 27.9668C22.3703 28.7306 25.089 28.8292 26.0417 28.8374C28.0869 28.8456 32.9328 28.4185 36.2839 24.8867C33.7131 27.0797 29.9595 28.0818 25.3846 28.0407ZM37.4584 17.3797C38.1073 17.7164 38.6001 17.8725 38.7726 18.0121C38.8958 18.1107 39.0108 18.587 38.945 18.9402C38.3455 18.9074 37.713 18.3078 37.4584 17.3797ZM33.8773 16.1723C32.9328 16.0901 31.8733 14.9731 31.3887 14.3571C29.6392 15.4495 26.4688 15.3509 24.013 15.392C24.9083 15.5645 25.861 15.7452 27.0355 16.1394C24.0376 16.008 16.7523 15.7945 14.7072 19.1045C15.4217 18.8252 16.1281 18.6035 16.8344 18.5378C15.4792 19.7205 11.3232 22.8252 11.2164 26.2337C11.6764 25.6999 12.5306 24.9278 13.2123 24.7225C12.1364 26.6444 9.49984 32.1146 10.7893 34.0365C10.7893 33.7162 11.0111 32.9359 11.2164 32.8866C11.3396 32.8456 11.4546 33.322 11.7421 34.1022C12.161 35.2439 13.3602 38.02 15.4217 39.7202C12.9495 35.8188 11.9803 29.1085 16.1281 23.8026C19.4792 19.5234 26.5427 18.0285 31.2901 21.2071C31.5201 20.2215 32.8835 19.1538 34.3044 19.9505C33.3435 20.0737 31.7336 20.394 31.9554 21.8971C32.0868 22.8005 33.0889 23.4576 33.3763 23.5644C30.8548 25.8395 21.7214 27.9421 20.5387 23.9833C20.3087 24.1886 19.011 26.0531 18.9699 24.6978C18.9289 23.5808 21.4422 21.4782 22.7317 20.3776C18.0911 21.4042 16.5716 23.9833 15.2164 26.8333C13.7133 30.0037 13.779 33.7901 14.8714 37.6176C15.1753 38.6771 15.6435 39.597 15.931 40.4266C16.5798 39.7613 16.7852 38.1925 17.4669 37.3465C18.1404 36.5088 19.5777 36.1967 21.0808 36.5334C20.4237 35.4903 19.5038 35.1782 18.3457 32.9277C17.7626 31.7778 17.3026 30.2912 17.3683 28.8621C18.28 31.901 20.3005 34.7511 23.7502 35.5314C21.9104 34.9729 20.3498 33.322 19.4135 31.4246C19.2163 31.0304 18.9946 30.6115 18.7153 29.8148C18.5511 29.3384 18.5921 29.051 18.8057 28.8867C19.011 28.7224 19.2574 28.7142 19.7009 28.9524C20.9904 29.6588 27.9965 32.3363 33.5652 28.32C29.631 30.2666 24.2676 30.7922 21.2533 28.09C21.089 27.9421 20.933 27.7697 20.9576 27.5479C20.9904 27.2522 21.5818 27.0715 22.3539 27.0551C22.9863 27.0305 23.6188 27.0633 24.2348 27.0387C26.6084 26.9155 29.7542 26.3816 32.3168 24.7964C33.1381 24.2872 33.4667 23.9093 33.8527 23.6712C34.017 23.5726 34.2223 23.589 34.4112 23.5726C34.9451 23.3508 35.6515 23.3837 36.251 23.9176C36.8013 23.6958 37.1463 23.9258 37.7952 24.3611C38.1401 24.5911 38.5754 24.821 38.559 25.0264C38.5262 25.3221 38.1566 25.5192 37.7623 25.6588C37.4748 25.7574 37.2202 25.782 37.0806 25.9052C39.3804 26.0284 40.4399 25.9134 39.5693 27.3179C40.7602 27.1537 41.4173 26.0859 41.4009 24.9853C41.253 25.1249 41.1052 25.2399 40.9738 25.281C41.097 24.8293 41.1134 24.5336 41.0559 24.0654C40.9656 24.164 40.9573 24.5089 40.8177 24.6978C40.5877 25.0346 40.3495 25.1331 40.0046 25.1249C39.7746 24.5089 39.4953 23.6219 39.0929 23.0223C39.1011 23.2605 38.9615 23.3673 38.8875 23.6712C38.674 23.0305 38.4604 22.9155 37.8116 22.7677C37.3516 22.6855 36.6453 22.2913 36.6863 21.856C36.7356 21.3303 37.6966 21.3139 38.0744 21.2893C38.1401 21.5849 38.1894 21.9053 38.2305 22.2338C38.7397 21.8149 40.5549 21.6014 40.8506 22.1681C40.9738 22.3981 40.4645 22.858 40.1606 23.0551C41.1627 22.973 41.598 22.5623 41.9265 22.4227C42.1072 22.8991 42.0333 23.474 41.9347 24.1475C42.715 23.3673 42.8793 22.4474 42.9861 21.6178C43.3228 21.5357 43.7581 22.2913 44.0867 22.8745C44.0374 22.1681 43.29 21.3878 42.8054 20.8868C42.5507 20.6075 42.5754 20.5172 42.485 20.1722C41.6801 20.2215 41.0723 20.3201 40.9984 19.3262C39.4378 19.3919 39.5693 17.9382 39.4543 17.199C39.3968 16.8622 38.8711 16.468 38.3947 16.3037C37.8116 16.1066 37.5323 16.2626 37.0395 16.1805C34.0909 15.6877 30.8055 11.0142 29.9267 8.78839C30.2059 11.0882 32.1525 14.2339 33.8773 16.1723ZM9.968 15.6959C10.4197 15.737 11.1754 16.0244 11.1754 16.353C11.1836 16.8786 10.6579 16.6979 10.7319 17.971C10.7811 18.817 11.1836 19.2113 11.3889 19.7287C11.4875 19.9915 11.545 20.2133 11.4629 20.3693C11.3971 20.5008 11.0604 20.3201 10.7236 20.1065C10.313 19.8437 9.85302 19.4659 9.79552 18.8827C9.76267 18.587 9.352 18.086 8.84276 17.8314C8.26782 17.5521 7.55325 17.4454 7.14258 17.7246C7.91464 17.6753 8.70313 17.9628 8.85097 18.5049C8.9249 18.7842 8.85919 19.5069 8.94132 19.6712C9.08095 19.934 9.40949 19.8108 9.68875 20.1476C9.97622 20.4926 10.083 20.7882 10.4033 21.0593C11.43 21.9463 12.5635 21.4207 12.1528 23.0962C12.6209 22.0777 13.5162 20.9936 14.4525 20.3447C14.1569 20.3693 13.6805 20.7225 13.4341 20.7225C12.8756 20.7225 13.1302 18.932 13.5244 18.8827C13.6558 18.8745 13.6641 18.9895 13.8201 18.9813C14.1897 18.9731 14.469 18.546 14.4772 18.2667C14.4936 17.7164 13.779 16.7062 13.2862 16.5255C13.6641 16.9854 14.0337 17.5604 13.6723 17.8807C13.4834 18.0449 13.2123 17.6671 12.9577 17.7082C12.3745 17.8068 12.4813 19.934 12.3006 19.9423C12.0296 19.9669 11.4793 17.7493 11.7093 17.5111C11.8325 17.3797 12.046 17.5275 12.1446 17.4536C12.2842 17.355 12.0214 16.6404 11.5696 16.1887C11.085 15.6959 10.4033 15.5316 9.968 15.6959ZM29.8445 14.6528C30.1649 14.6528 30.4441 14.5132 30.7316 14.3735C29.9103 13.6836 28.2922 12.0573 27.438 11.2935C27.7665 11.967 29.1546 14.6528 29.8445 14.6528Z" fill="#1C1B17"/>
<path fill-rule="evenodd" clip-rule="evenodd" d="M43.0271 35.4492C42.9121 35.7038 42.7561 36.0077 42.5179 36.1063C42.3783 36.1556 42.1319 36.057 42.2304 35.8353C42.3454 35.5806 42.6329 35.7696 43.0271 35.4492ZM25.8035 54.5291C26.0335 53.8227 27.1587 53.3545 27.4052 52.9192C27.6433 52.4921 27.1752 51.6954 26.6084 52.0979C25.8446 52.6318 25.7871 53.6749 25.8035 54.5291ZM20.6783 52.9521C21.1794 52.2457 22.0336 52.0075 22.8385 51.3669C23.2409 51.0466 22.9945 50.0199 22.05 50.2663C21.5161 50.4059 20.7523 51.8351 20.6783 52.9521ZM32.7603 51.0301C32.7357 51.7611 33.7131 52.6975 34.1402 52.8453C33.5981 52.0815 33.9266 51.0958 33.6556 50.7591C33.401 50.4306 32.7603 50.488 32.7603 51.0301ZM39.8649 35.5889C40.4563 36.1063 40.7766 36.6895 40.7931 37.5108C40.8341 39.712 39.1504 42.5785 37.7541 44.7797C36.6535 46.7509 35.6515 47.5312 33.6802 48.369C32.1279 49.0343 30.4031 49.3053 28.4483 49.4203H27.6598C25.6064 49.4203 23.7173 48.985 22.6578 47.0384C21.5654 45.0261 21.6065 42.2828 21.9843 40.0405C21.59 40.1227 21.0069 41.1904 19.0603 41.1822C18.124 41.1822 17.3847 40.5662 17.3847 39.9009C17.393 39.0796 18.4936 38.2993 19.241 38.3239C19.8734 38.3239 20.2595 38.9317 20.2677 39.2274C20.2759 39.3506 19.9966 39.712 19.471 39.712C18.9782 39.6874 18.8139 39.3342 18.6414 39.0631C18.0418 40.7387 20.7851 41.0837 21.705 39.5231C22.2307 38.636 22.1568 37.4533 21.4833 36.8209C20.5551 35.942 17.9679 36.4102 17.319 37.9872C17.0808 38.5375 16.9823 39.0467 16.6537 39.6381C16.4977 39.9173 15.8817 40.8947 15.7831 41.0015C16.7195 41.059 17.6886 41.5929 17.7133 42.5703C17.7297 43.3095 17.2369 43.5313 17.2369 44.3937C17.2451 45.3957 18.2307 45.8557 18.8467 46.4224C19.6599 47.1534 19.9802 47.7201 19.9473 48.2376C19.8488 49.8392 21.5243 49.4039 22.822 50.0445C24.4483 50.8494 22.9206 52.4675 26.2388 51.6051C27.2409 51.3505 28.2922 52.2622 29.516 52.1964C30.5591 52.139 31.8158 50.7837 33.0231 50.2499C34.5016 49.6092 36.0128 49.9952 36.982 48.8371C37.672 47.9665 37.6309 46.8577 38.5754 45.1C39.4132 43.5313 40.1278 43.6955 40.6288 42.4224C40.9245 41.6586 41.2859 40.0405 41.4419 39.3835C41.6308 38.6196 42.3454 38.3568 42.3208 37.3794C42.3126 36.9934 42.0497 36.5498 41.8937 36.0488C41.6226 35.1289 41.0888 34.595 40.6042 34.4308C39.0354 33.9133 37.7212 34.2747 35.4872 34.209C33.8281 34.1597 31.8158 33.4862 31.7419 30.9729C31.1176 32.6977 32.4811 34.0529 33.3517 34.3322C34.1237 34.5704 34.0663 35.2603 34.0252 35.3507C33.8445 35.8188 33.0067 35.8845 32.1607 35.4985C31.1587 35.0468 30.3702 33.7901 29.9677 32.9934C30.5345 35.0468 31.9061 36.2131 33.5817 36.7552C34.247 36.9687 35.7911 37.0344 37.442 36.5909C36.0457 36.4759 35.4215 36.3938 34.9205 35.9338C34.6248 35.6546 34.6823 35.0468 34.8547 34.8579C35.0026 34.7182 35.4379 34.9482 36.1853 34.8989C37.9676 34.7839 39.2736 35.0714 39.8649 35.5889ZM16.8509 49.5928C17.434 48.8946 18.9617 48.8043 19.3478 48.4183C19.7338 48.0404 19.6024 47.1452 18.9289 47.1534C18.2636 47.1534 17.0316 48.5743 16.8509 49.5928ZM39.3064 45.8803C39.8239 45.9214 40.3413 45.8639 40.8423 45.5846C40.0867 45.601 39.5528 45.0015 39.1997 45.0015C38.5919 45.0097 38.6165 45.8392 39.3064 45.8803ZM23.5613 40.1227C23.4956 40.8947 24.128 40.6648 24.0869 40.9358C23.9966 41.5847 23.553 42.4471 22.8631 42.521C22.2635 42.5867 22.666 41.3876 22.2471 41.0508C22.0336 42.4635 22.1239 43.8269 22.4114 45.1739C22.4689 43.5066 23.8569 44.7551 25.3025 44.7058C25.746 44.6894 26.2471 44.369 26.7974 44.4676C26.8959 44.484 27.2819 44.6976 27.4544 44.4758C28.4154 43.2274 28.9246 43.2684 30.1402 44.2376C29.7131 43.0631 27.9637 42.6935 27.0027 43.3998C26.5017 43.8269 26.0417 43.7366 25.4175 43.6709C25.0397 43.638 24.7851 43.7037 24.7768 43.4656C24.7768 43.2684 25.13 42.981 25.3107 42.9235C26.1649 42.6442 27.052 42.2089 27.4134 41.3136C27.6023 40.903 27.5366 40.4348 27.709 40.2952C27.9637 40.0898 28.514 40.2459 29.1875 40.6073C28.9 40.2377 28.3168 39.9338 27.7337 39.9173C26.8713 39.8845 26.1567 40.4759 26.1649 40.5744C26.1649 40.7387 26.4688 40.7469 26.4688 40.9522C26.4688 41.3465 24.4647 42.7263 24.3333 42.5539C24.1855 42.3485 25.4257 41.1576 25.3929 40.3855C25.3764 40.0734 24.6454 40.172 24.5962 39.9009C24.5058 39.4163 25.4257 39.1289 26.0581 39.0385C24.8836 38.981 23.627 39.2356 23.5613 40.1227ZM14.1486 44.7797C14.8222 43.9584 15.8324 43.9009 16.6045 43.4738C17.3026 43.0795 17.3765 41.8475 16.3581 41.8229C15.4382 41.8064 14.1651 43.9584 14.1486 44.7797ZM42.1401 39.942C42.6986 39.9338 42.9039 39.5724 43.2325 39.5149C42.6411 39.4656 42.1483 39.3424 41.9676 39.4328C41.6801 39.5724 41.7869 39.942 42.1401 39.942ZM32.596 32.5335C33.4995 33.8394 35.2572 33.9215 35.3393 33.8065C35.405 33.708 35.1586 33.3219 35.2654 33.1166C35.5365 32.6074 37.4748 33.3137 37.7459 33.6751C37.0806 31.3589 34.0416 29.7902 32.0211 29.8805C33.6967 30.4883 35.2572 31.2686 35.3311 31.901C35.4215 32.5581 33.8938 33.3548 32.596 32.5335ZM19.6763 29.3466C19.471 30.0284 22.5346 33.6176 28.6454 32.8127C26.1896 32.8127 22.2964 32.1721 20.6783 29.9626C20.5962 29.8477 19.8406 28.8128 19.6763 29.3466ZM25.3846 27.6793C24.1691 27.6711 22.3785 27.1454 22.3703 27.6136C22.3703 28.3775 25.089 28.4678 26.0417 28.476C28.0869 28.4842 32.9328 28.0653 36.2839 24.5336C33.7131 26.7183 29.9595 27.7286 25.3846 27.6793ZM37.4584 17.0265C38.1073 17.355 38.6001 17.5193 38.7726 17.6507C38.8958 17.7575 39.0108 18.2338 38.945 18.587C38.3455 18.546 37.713 17.9464 37.4584 17.0265ZM33.8773 15.8109C32.9328 15.737 31.8733 14.6117 31.3887 14.0039C29.6392 15.0963 26.4688 14.9977 24.013 15.0388C24.9083 15.2113 25.861 15.3838 27.0355 15.778C24.0376 15.6466 16.7523 15.4331 14.7072 18.7431C15.4217 18.472 16.1281 18.2503 16.8344 18.1764C15.4792 19.3673 11.3232 22.472 11.2164 25.8724C11.6764 25.3385 12.5306 24.5746 13.2123 24.3693C12.1364 26.283 9.49984 31.7614 10.7893 33.6751C10.7893 33.363 11.0111 32.5827 11.2164 32.5252C11.3396 32.4924 11.4546 32.9688 11.7421 33.7408C12.161 34.8907 13.3602 37.6586 15.4217 39.367C12.9495 35.4574 11.9803 28.7553 16.1281 23.4494C19.4792 19.162 26.5427 17.6753 31.2901 20.8539C31.5201 19.8683 32.8835 18.8006 34.3044 19.5891C33.3435 19.7123 31.7336 20.0326 31.9554 21.5357C32.0868 22.4473 33.0889 23.0962 33.3763 23.203C30.8548 25.4863 21.7214 27.5807 20.5387 23.6301C20.3087 23.8272 19.011 25.6999 18.9699 24.3364C18.9289 23.2276 21.4422 21.1168 22.7317 20.0162C18.0911 21.0428 16.5716 23.6301 15.2164 26.4801C13.7133 29.6505 13.779 33.4369 14.8714 37.2644C15.1753 38.3157 15.6435 39.2438 15.931 40.0734C16.5798 39.3999 16.7852 37.8311 17.4669 36.9934C18.1404 36.1556 19.5777 35.8435 21.0808 36.1802C20.4237 35.1371 19.5038 34.8168 18.3457 32.5745C17.7626 31.4164 17.3026 29.938 17.3683 28.5089C18.28 31.5478 20.3005 34.3979 23.7502 35.17C21.9104 34.6115 20.3498 32.9688 19.4135 31.0715C19.2163 30.6772 18.9946 30.2583 18.7153 29.4616C18.5511 28.9852 18.5921 28.6978 18.8057 28.5253C19.011 28.361 19.2574 28.3528 19.7009 28.5992C20.9904 29.2974 27.9965 31.9832 33.5652 27.9668C29.631 29.9052 24.2676 30.439 21.2533 27.7286C21.089 27.589 20.933 27.4083 20.9576 27.1947C20.9904 26.899 21.5818 26.7183 22.3539 26.6937C22.9863 26.6773 23.6188 26.7101 24.2348 26.6773C26.6084 26.5623 29.7542 26.0202 32.3168 24.435C33.1381 23.934 33.4667 23.5562 33.8527 23.318C34.017 23.2194 34.2223 23.2358 34.4112 23.2194C34.9451 22.9976 35.6515 23.0305 36.251 23.5562C36.8013 23.3344 37.1463 23.5726 37.7952 23.9997C38.1401 24.2297 38.5754 24.4679 38.559 24.6732C38.5262 24.9607 38.1566 25.166 37.7623 25.2974C37.4748 25.396 37.2202 25.4288 37.0806 25.5438C39.3804 25.667 40.4399 25.5602 39.5693 26.9647C40.7602 26.7923 41.4173 25.7327 41.4009 24.6321C41.253 24.7717 41.1052 24.8867 40.9738 24.9196C41.097 24.4761 41.1134 24.1804 41.0559 23.7122C40.9656 23.8026 40.9573 24.1475 40.8177 24.3446C40.5877 24.6814 40.3495 24.7717 40.0046 24.7717C39.7746 24.1475 39.4953 23.2605 39.0929 22.6691C39.1011 22.8991 38.9615 23.0141 38.8875 23.3098C38.674 22.6773 38.4604 22.5541 37.8116 22.4145C37.3516 22.3324 36.6453 21.9381 36.6863 21.4946C36.7356 20.9771 37.6966 20.9607 38.0744 20.9279C38.1401 21.2235 38.1894 21.5439 38.2305 21.8724C38.7397 21.4617 40.5549 21.24 40.8506 21.8067C40.9738 22.0367 40.4645 22.4966 40.1606 22.702C41.1627 22.6116 41.598 22.2092 41.9265 22.0613C42.1072 22.5459 42.0333 23.1208 41.9347 23.7861C42.715 23.0059 42.8793 22.0942 42.9861 21.2564C43.3228 21.1743 43.7581 21.9299 44.0867 22.5213C44.0374 21.8067 43.29 21.0346 42.8054 20.5254C42.5507 20.2544 42.5754 20.1558 42.485 19.819C41.6801 19.8683 41.0723 19.9587 40.9984 18.9731C39.4378 19.0305 39.5693 17.5768 39.4543 16.8376C39.3968 16.509 38.8711 16.1148 38.3947 15.9505C37.8116 15.7534 37.5323 15.9094 37.0395 15.8273C34.0909 15.3345 30.8055 10.661 29.9267 8.4352C30.2059 10.735 32.1525 13.8725 33.8773 15.8109ZM9.968 15.3345C10.4197 15.3756 11.1754 15.6712 11.1754 15.9998C11.1836 16.5254 10.6579 16.3365 10.7319 17.6178C10.7811 18.4638 11.1836 18.8499 11.3889 19.3673C11.4875 19.6301 11.545 19.8601 11.4629 20.0162C11.3971 20.1476 11.0604 19.9669 10.7236 19.7451C10.313 19.4823 9.85302 19.1045 9.79552 18.5295C9.76267 18.2338 9.352 17.7328 8.84276 17.4782C8.26782 17.1907 7.55325 17.0922 7.14258 17.3714C7.91464 17.3222 8.70313 17.6014 8.85097 18.1435C8.9249 18.431 8.85919 19.1538 8.94132 19.3098C9.08095 19.5726 9.40949 19.4576 9.68875 19.7944C9.97622 20.1312 10.083 20.435 10.4033 20.7061C11.43 21.5849 12.5635 21.0593 12.1528 22.743C12.6209 21.7163 13.5162 20.6322 14.4525 19.9833C14.1569 20.0079 13.6805 20.3611 13.4341 20.3611C12.8756 20.3611 13.1302 18.5706 13.5244 18.5295C13.6558 18.5131 13.6641 18.6363 13.8201 18.6281C14.1897 18.6117 14.469 18.1928 14.4772 17.9135C14.4936 17.3632 13.779 16.353 13.2862 16.1641C13.6641 16.624 14.0337 17.2072 13.6723 17.5275C13.4834 17.6918 13.2123 17.3139 12.9577 17.355C12.3745 17.4454 12.4813 19.5809 12.3006 19.5891C12.0296 19.6055 11.4793 17.3961 11.7093 17.1579C11.8325 17.0183 12.046 17.1743 12.1446 17.1004C12.2842 16.9936 12.0214 16.279 11.5696 15.8273C11.085 15.3427 10.4033 15.1702 9.968 15.3345ZM29.8445 14.2996C30.1649 14.2996 30.4441 14.16 30.7316 14.0203C29.9103 13.3222 28.2922 11.7042 27.438 10.9403C27.7665 11.6138 29.1546 14.2996 29.8445 14.2996Z" fill="#EBECEC"/>
<path fill-rule="evenodd" clip-rule="evenodd" d="M186.139 49.831L195.502 23.9997C195.502 23.9997 188.496 23.9997 181.498 25.4042L172.652 49.831H186.139ZM184.537 17.0265L182.747 21.9874C189.777 20.5911 196.734 20.5911 196.734 20.5911L198.533 15.6302C198.533 15.6302 191.543 15.6302 184.537 17.0265Z" fill="black"/>
<path fill-rule="evenodd" clip-rule="evenodd" d="M134 48.4183C138.756 49.3382 143.667 49.831 148.694 49.831C156.669 49.831 159.954 49.0343 164.094 46.9234C167.618 45.1165 169.934 43.2109 170.936 39.9091C171.79 37.0837 170.698 34.4226 168.16 32.7306C165.638 31.0386 163.182 30.2337 160.267 28.6239C157.72 27.2194 156.332 26.168 156.497 24.6896C156.858 21.6014 160.168 20.5911 164.71 20.5911C169.145 20.5911 173.49 20.9854 177.696 21.7574L179.412 17.0265C174.657 16.1148 169.745 15.6302 164.71 15.6302C156.735 15.6302 153.466 16.4187 149.318 18.5295C145.795 20.3365 143.47 22.242 142.484 25.552C141.622 28.3775 142.714 31.0386 145.252 32.7306C147.782 34.4226 150.23 35.2275 153.137 36.8373C155.692 38.2336 157.08 39.2931 156.907 40.7633C156.554 43.8598 153.244 44.8701 148.694 44.8701C144.267 44.8701 139.922 44.4676 135.717 43.6955L134 48.4183Z" fill="black"/>
<path fill-rule="evenodd" clip-rule="evenodd" d="M128.867 49.831L137.556 25.8806C138.263 23.9422 138.304 20.4515 136.357 18.5377C134.402 16.6158 132.078 15.6302 127.782 15.6302C123.487 15.622 119.996 16.7554 117.204 17.856C115.692 18.431 113.458 19.5891 110.928 21.1168C110.69 20.1476 110.23 19.2359 109.524 18.5377C107.577 16.6158 105.245 15.6302 100.957 15.6302C96.6535 15.622 93.171 16.7554 90.3702 17.856C88.8671 18.431 86.6331 19.5891 84.0951 21.1168C83.8487 20.1476 83.4134 19.2359 82.6988 18.5377C80.744 16.6158 78.4278 15.6302 74.124 15.6302L61.7217 49.831H75.2082L81.4175 32.7306C82.5263 29.6259 85.5982 26.6691 87.2737 25.3795C89.4174 23.7286 98.9697 21.0921 96.366 28.2789L88.555 49.831H102.041L108.243 32.7224C109.368 29.6259 112.423 26.6691 114.107 25.3795C116.243 23.7286 125.795 21.0921 123.191 28.2789L115.38 49.831H128.867Z" fill="black"/>
<path fill-rule="evenodd" clip-rule="evenodd" d="M205.449 21.0675C203.913 21.0675 202.681 19.8355 202.681 18.2996C202.681 16.7801 203.913 15.5398 205.449 15.5398C206.969 15.5398 208.201 16.7801 208.201 18.2996C208.201 19.8355 206.969 21.0675 205.449 21.0675ZM205.449 15.9423C204.16 15.9423 203.125 17.01 203.125 18.2996C203.125 19.6055 204.16 20.6568 205.449 20.6568C206.73 20.6568 207.773 19.6055 207.773 18.2996C207.773 17.01 206.73 15.9423 205.449 15.9423ZM206.114 19.819L205.416 18.5788H204.956V19.819H204.546V16.7883H205.572C206.098 16.7883 206.525 17.1825 206.525 17.6918C206.525 18.1353 206.246 18.4063 205.884 18.5295L206.607 19.819H206.114ZM205.523 17.1579H204.956V18.2174H205.523C205.868 18.2174 206.098 17.9874 206.098 17.6918C206.098 17.3879 205.868 17.1579 205.523 17.1579Z" fill="black"/>
<defs>
<radialGradient id="paint0_radial" cx="0" cy="0" r="1" gradientUnits="userSpaceOnUse" gradientTransform="translate(32.2802 22.6505) scale(14.5654)">
<stop stop-color="#D9DADA"/>
<stop offset="0.141176" stop-color="#DFB19E"/>
<stop offset="1" stop-color="#E31E24"/>
</radialGradient>
<linearGradient id="paint1_linear" x1="14.7623" y1="25.5538" x2="39.4761" y2="39.8213" gradientUnits="userSpaceOnUse">
<stop stop-color="#EBECEC"/>
<stop offset="0.509804" stop-color="#D2D3D3"/>
<stop offset="0.8" stop-color="#C2C3C3"/>
<stop offset="1" stop-color="#9D9E9E"/>
</linearGradient>
</defs>
</svg>
